<svg xmlns="http://www.w3.org/2000/svg" xml:space="preserve" width="1500" height="1500" data-id="lg_ABhkgDlwuMmbfH3bmp" data-version="1" viewBox="0 0 1500 1500"><path fill="#bfbfbf" stroke="transparent" d="M0 0h1500v1500H0z"/><g data-padding="20"><g transform="translate(-576.165 -590.168)scale(1.72788)"><rect width="428.6" height="113" x="273.672" y="657.404" fill="none" rx="0" ry="0" transform="translate(214.84 66.31)"/><path fill="#111" d="M929.81 802.657a13.166 13.166 0 1 0-1.191 26.304 13.166 13.166 0 0 0 1.192-26.304m0 20.256a7.105 7.105 0 0 1 0-14.18 7.105 7.105 0 0 1 0 14.18m88.61-20.27a13.166 13.166 0 0 0 0 26.316 13.166 13.166 0 0 0 0-26.317m0 20.257a7.105 7.105 0 0 1 0-14.182 7.105 7.105 0 0 1 0 14.182"/><path fill="#111" d="M1043.97 805.963c0-12.775-7.975-14.312-7.975-14.312-11.716-1.638-31.9-2.494-31.9-2.494-1.827-3.205-10.397-21.953-15.37-21.953h-43.718c-6.336 0-16.718 18.27-18.995 22.417 0 0-7.946 1.35-11.687 2.22-2.073.477-7.844.58-7.844 16.688h-4.974v7.294h12.136a16.197 16.197 0 1 1 32.379 0h56.202c0-8.946 7.25-16.197 16.197-16.197s16.196 7.251 16.196 16.197h11.89v-9.86Zm-77.575-18.053h-25.23c3.393-10.628 9.715-18.212 12.397-18.212h12.833Zm4.698 0v-18.212h16.37c3.364 0 10.759 15.428 12.833 19.372Z"/><rect width="310.883" height="77.97" x="251.202" y="555.935" fill="none" rx="0" ry="0" transform="matrix(1.2 0 0 1.2 206.92 47.39)"/><path fill="#111" d="M570.092 787.31h-42.228l12.252-57.792h41.976l-1.812 8.688h-31.548l-3.156 14.82h21.288l-1.908 8.7H543.68l-3.564 16.896H572Zm47.532 0h-38.748l1.572-7.2 23.52-22.608 8.94-7.86h-24.84l1.656-8.04h37.596l-1.488 7.044-23.772 22.764-9.024 7.872h26.244Zm50.172 0h-38.748l1.572-7.2 23.508-22.608 8.952-7.86h-24.84l1.656-8.04h37.584l-1.488 7.044-23.76 22.764-9.024 7.872h26.244Zm38.088-23.268h-15.24l1.908-8.688h14.652q5.712 0 9.072-2.652 3.348-2.652 3.348-7.128 0-3.312-2.316-5.34t-6.204-2.028H696.2l1.812-8.688h14.82q5.388 0 9.408 1.908 4.008 1.896 6.204 5.376t2.196 8.112q0 4.392-1.74 7.908t-4.968 6.048q-3.228 2.52-7.824 3.852-4.596 1.32-10.224 1.32m-17.22 23.268h-10.44l12.336-57.792h10.356Zm34.776 0h-10.764q-.168-5.796-2.16-10.68-1.98-4.884-5.832-8.82t-9.732-6.744l11.34-2.484q5.88 3.48 9.564 7.86 3.684 4.392 5.556 9.648 1.86 5.256 2.028 11.22m30.636 0h-9.852l9.684-45.708h9.936Zm15.48 0h-41.484l1.74-8.028h41.484Zm-12.42-37.668H741.98l1.74-8.04h15.156Zm8.856-15.324h-10.848l2.16-10.104h10.848Zm39.576 6.288q4.068 0 7.992 1.536 3.936 1.536 6.012 4.428l4.464-20.28h9.768l-12.996 61.02h-9.36l.912-5.796q-2.652 3.06-5.832 4.932-3.192 1.86-7.248 1.86-5.796 0-9.936-2.532-4.14-2.52-6.336-6.828t-2.196-9.6q0-6.132 1.704-11.352 1.692-5.208 4.884-9.108 3.192-3.888 7.788-6.084 4.584-2.196 10.38-2.196m-4.464 39.504q4.14 0 7.488-2.448 3.36-2.436 5.844-6.42l2.976-13.992q-.912-3.804-3.972-6.12t-7.2-2.316q-4.476 0-7.956 2.556-3.48 2.568-5.424 7.008-1.944 4.428-1.944 10.056 0 3.48 1.248 6.084 1.236 2.604 3.516 4.104 2.28 1.488 5.424 1.488m51.096 8.196q-6.12 0-10.8-2.448-4.68-2.436-7.332-6.912-2.652-4.464-2.652-10.512 0-5.88 1.788-10.932 1.776-5.052 5.088-8.856 3.312-3.816 8.112-5.928t10.932-2.112q7.032 0 11.796 2.94t6.708 8.28.624 12.636h-37.008l1.572-7.128h25.908q.084-3.972-2.484-6.372t-7.536-2.4q-5.544 0-8.94 2.808-3.396 2.82-4.92 7.248-1.536 4.428-1.536 9.312 0 3.732 1.368 6.468 1.368 2.724 3.936 4.26t5.952 1.536q5.556 0 8.784-2.4 3.228-2.412 4.308-6.132h9.936q-1.5 5.052-4.512 8.82-3.024 3.768-7.752 5.796-4.716 2.028-11.34 2.028"/></g><path fill="transparent" stroke="transparent" stroke-width="1.792" d="M250 640.681h1000v218.638H250z"/></g></svg>